<svg width="39" height="39" viewBox="0 0 39 39" fill="none" xmlns="http://www.w3.org/2000/svg">
<g clip-path="url(#clip0_3731_295)">
<path d="M6.2521 37.8495H32.8742C28.396 36.7573 26.7307 34.7526 26.7307 30.4772V8.48981C26.7307 5.1761 24.0444 2.48981 20.7307 2.48981H6.5431C3.27324 2.48981 0.60484 5.10702 0.561938 8.37661C0.458774 16.2388 0.399538 26.6521 0.65455 30.4772C0.982208 35.3921 4.52277 37.44 6.2521 37.8495Z" fill="#E64C42"/>
<path d="M33.904 7.56607H28.5947V31.3947C28.5947 32.7761 29.2854 36.1308 33.6762 36.1308C37.1888 36.1308 38.2314 32.9734 38.3136 31.3947C38.2808 25.5074 38.2347 13.2001 38.3136 11.0688C38.3553 9.94387 37.8857 9.10848 37.3023 8.52928C36.4348 7.66805 35.1263 7.56607 33.904 7.56607Z" fill="#E64C42"/>
</g>
<defs>
<clipPath id="clip0_3731_295">
<rect width="39" height="39" fill="white"/>
</clipPath>
</defs>
</svg>
