<svg width="130" height="97" viewBox="0 0 130 97" fill="none" xmlns="http://www.w3.org/2000/svg">
<path d="M22.7187 55.366C27.7204 51.3724 34.658 50.8506 40.201 54.0508L55.3257 62.783L50.8816 70.4803L35.7569 61.7481C33.3813 60.3766 30.4081 60.6003 28.2645 62.3119L8.37608 78.1917L2.83008 71.246L22.7187 55.366Z" fill="black"/>
<path d="M50.2111 28.6134C50.2111 34.6557 45.3129 39.5539 39.2706 39.5539C33.2283 39.5539 28.3301 34.6557 28.3301 28.6134C28.3301 22.5711 33.2283 17.6729 39.2706 17.6729C45.3129 17.6729 50.2111 22.5711 50.2111 28.6134Z" fill="black"/>
<path d="M108.086 0.000976562C114.156 0.0778896 119.053 5.0223 119.053 11.1104V55.4561C116.534 54.5841 113.828 54.1104 111.013 54.1104C110.729 54.1104 110.446 54.1164 110.165 54.126V11.1104C110.165 9.88315 109.17 8.8877 107.942 8.8877H11.1104C9.88315 8.8877 8.8877 9.88315 8.8877 11.1104V84.1475C8.8877 85.3747 9.88315 86.3701 11.1104 86.3701H24.8818L68.2363 43.0166C74.3106 36.9424 84.1591 36.9424 90.2334 43.0166L102.751 55.5342C99.814 56.5827 97.1349 58.1737 94.835 60.1875L83.9482 49.3008C81.345 46.6977 77.1238 46.6976 74.5205 49.3008L37.4521 86.3701H87.6729C88.7713 89.7056 90.5639 92.7251 92.8809 95.2578H11.1104C5.0223 95.2578 0.0778888 90.3608 0.000976562 84.291L0 84.1475V11.1104C0 5.0223 4.897 0.0778886 10.9668 0.000976562L11.1104 0H107.942L108.086 0.000976562Z" fill="black"/>
<path d="M106.566 92.3362V63.9138C106.566 61.4594 108.556 59.4697 111.01 59.4697C113.465 59.4697 115.455 61.4594 115.455 63.9138V92.3362C115.455 94.7906 113.465 96.7803 111.01 96.7803C108.556 96.7803 106.566 94.7906 106.566 92.3362Z" fill="black"/>
<path d="M96.8015 73.6802L125.224 73.6802C127.678 73.6802 129.668 75.6699 129.668 78.1243C129.668 80.5787 127.678 82.5684 125.224 82.5684L96.8015 82.5684C94.3471 82.5684 92.3574 80.5787 92.3574 78.1243C92.3574 75.6699 94.3471 73.6802 96.8015 73.6802Z" fill="black"/>
</svg>
